<?xml version="1.0" encoding="UTF-8"?>
<svg version="1.1" viewBox="0 0 1600 1600" width="1280" height="1280" xmlns="http://www.w3.org/2000/svg">
<path transform="translate(769,285)" d="m0 0h7l12 6 23 16 33 22 16 11 30 20 16 11 15 11 21 16 17 13 16 13 12 11 11 9 17 16 12 11 11 11 9 11 2 1v-12l1-13 4-8 5-6 8-5 6-2h18l9 3 6 5 5 9 3 9v11l-5 15-4 6-9 5-15 5 10 25 12 25 20 41 7 16 14 41 5 22 3 27 1 17v42l-2 35-4 29-6 26-13 46-8 21-10 24-8 19-10 19-8 16-17 29-10 15-8 13-8 14-6 8-5 6-2-1v5l-13 17-22 36-9 13-14 17-7 9-14 15-8 10-12 12-4 5-8 7-9 10-34 34-7 8-15 15-7 8-15 16-5 6-5 4-4-2-4-11-7-21-7-18-9-28-4-10-10-13-7-6-7-8-27-27-6-7-8-7-27-27-8-7-9-9-8-7-13-12-7-7-13-10-9-9-10-8-13-13-8-7-14-15-5-5-11-13-7-7-13-17-14-19-8-14-9-14-19-38-7-18-10-27-7-24-7-38-3-27v-33l4-33 6-31 7-21 8-21 3-19 3-16 6-16 8-15 10-16 7-8 7-9 12-14 16-17 11-9 9-8 2-5-2-10v-13l4-13 8-13 6-7 10-7 11-5 6-1h20l10 3 10 6 9 10 8 12 8 13 12 23 6 16 3 18v18l-3 17-8 16-3 8 21-1 5-2 9-7 5-2h11l6 4 6 7 2 7-1 8-3 6-7 6-7 2-8 1-5 12-7 11-15 12-9 7-6 5-7 10-8 15-4 11-2 12-1 17 3 28 4 28 5 21 5 13 6 11 8 7 3 2 5 1 3-10 1-5v-11l-8-3-3-5-6-24-1-6v-24l4-24 5-17 8-18 9-10 12-10 13-4h31l13 4 11 8 7 9 3 10 1 7v10l-3 16-4 9 1 7 3 4 3 1h10l13-5 9-6 7-8 8-16 6-19 2-16-4-27-5-21-10-27-12-25-15-28-10-16-21-36-11-23-8-19-10-33-5-24-1-8v-38l3-22 8-32v-8l-1-2v-6zm253 495-5 12-1 7 3-4 5-12v-3zm-7 20 1 2zm-1 3m-27 71-15 42-8 22-12 24-8 14-9 13-4 5-3 6-2 10-4 9 1 10 11 15 10 13 5 13 3 12 4-1 5-3 8-13 4-9 8-36 7-40 6-46 2-15v-11l-4-9-2-10-1-14z" fill="#202C41"/>
<path transform="translate(769,285)" d="m0 0h7l12 6 23 16 33 22 16 11 30 20 16 11 15 11 21 16 17 13 16 13 12 11 11 9 17 16 12 11 11 11 9 11 2 1v-12l1-13 4-8 5-6 8-5 6-2h18l9 3 6 5 5 9 3 9v11l-5 15-4 6-9 5-15 5 6 15-1 1-1 29-3 28-6 29-8 38-6 20-12 32-8 17-10 18-10 17-5 8-3 3h-2l-2 5-6 9-11 11-6 8-8 8-5 4-2 4-7 6-3 3h-2v2l-7 4-7 8-5 2v2l-8 4-5 5-3 1-1 2h-3v2l-6 2v2h-3v2h-3v2l-8 4-6 2v2l-21 12-4 1v2l-6 1v2l-7 2v2l-8 4-5 3h-2v2l-10 4-4 4h-3v2l-5 3h-2v2l-4 1-1 3-6 4h-2v2l-5 4h-2l-2 4-20 20-1 2h-2l-2 5-6 8h-2l-2 5-10 14-8 17-4 8-8 26-4 1-5-7-7-16-1-4v-17l3-11 4-9h2l2-5 4-6 8-9 11-9 6-5 10-7 11-8 20-11 21-13-13 1h-30l-15-2-24-8-25-11-12-6-22-15-10-9-15-15-9-12-6-7-12-23-8-20-4-13-3-23v-22l2-18 4-15 7-17 8-16 6-9 9-12 9-11 21-21 8-7 10-11 3-3v3l21-1 5-2 9-7 5-2h11l6 4 6 7 2 7-1 8-3 6-7 6-7 2-8 1-5 12-7 11-15 12-9 7-6 5-7 10-8 15-4 11-2 12-1 17 3 28 4 28 5 21 5 13 6 11 8 7 3 2 5 1 3-10 1-5v-11l-8-3-3-5-6-24-1-6v-24l4-24 5-17 8-18 9-10 12-10 13-4h31l13 4 11 8 7 9 3 10 1 7v10l-3 16-4 9 1 7 3 4 3 1h10l13-5 9-6 7-8 8-16 6-19 2-16-4-27-5-21-10-27-12-25-15-28-10-16-21-36-11-23-8-19-10-33-5-24-1-8v-38l3-22 8-32v-8l-1-2v-6z" fill="#FCFCFC"/>
<path transform="translate(1086,531)" d="m0 0 2 2 8 19 13 26 11 23 9 19 15 44 5 22 3 27 1 17v42l-2 35-4 29-6 26-13 46-8 21-10 24-8 19-10 19-8 16-17 29-10 15-8 13-8 14-6 8-5 6-2-1v5l-13 17-22 36-9 13-14 17-7 9-14 15-8 10-12 12-4 5-8 7-9 10-34 34-7 8-15 15-7 8-15 16-5 6-5 4-4-2-4-11-7-21-7-18-9-28-4-10-10-13-4-4-1-8v-33l4-18 7-21h2l3-9 8-16 7-11 6-8 3-3 4-7 8-9h3l2-4 3-1 2-4 5-4 1-2h3v-2h3v-2h3l1-3h2l1-3h3l1-3 5-3h2v-2h3v-2h3v-2l5-3h2v-2l4-1v-2l7-4 4-5h2l1-3 5-3h2v-2l5-3 5-5 1-3 7-6h2l2-4 6-5v8l-4 8-1 9 3 7 9 12 10 13 5 13 2 12 8-4 8-13 4-9 8-36 7-40 6-46 2-15v-11l-4-9-2-10-1-17 6-21 11-28 9-26 6-16 5-9 3-16 1-2-5 5-1 2-2-1 10-17 8-14 10-21 13-35 5-17 10-48 4-19 3-28 1-29zm-64 249-5 12-1 7 3-4 5-12v-3zm-7 20 1 2z" fill="#158594"/>
<path transform="translate(768,290)" d="m0 0 4 2 14 12 17 12 13 11 12 8 15 12 19 14 13 11 11 9 12 11 12 12 7 8 9 10 7 9-1-5-1-4 5 2 8 7 5 5 14 15 10 12 12 16 14 22 9 14 8 16 8 18 5 16 7 37 2 17v32l-2 16-8 31-7 19-11 23-10 16-10 14-9 12-12 14-13 14-8 7-12 12-9 7-10 9-14 10-17 12-32 16-18 6-13 2-21 1-18-2-14-5-10-6-13-10-9-10-7-11-5-12-1-5v-10l4-8 10-6 11-2 36-1 23-2 20-5 21-9 15-10 8-8 8-7 9-12 10-18 7-16 3-13 4-25 1-9v-30l-3-24-5-25-7-20-11-27-8-16-14-24-5-9-10-15-7-13-14-23-10-19-8-14-8-19-8-16-7-15-8-22-11-27-4-13v-8z" fill="#F6933D"/>
<path transform="translate(623,428)" d="m0 0h20l10 3 10 6 9 10 8 12 8 13 12 23 6 16 3 18v18l-3 17-8 16-6 9-11 12-16 15-14 14-7 9-9 12-6 10-8 16-6 15-4 15-2 18v22l3 23 8 24 14 29 7 9 9 11 7 8 15 15 16 11 13 8 12 6 24 10 21 7 15 2h30l14-1-4 4-27 16-14 8-7 5-7 1-15 5-21 3h-11l-21-3-20-6-19-7-18-7-15-9-16-10-10-8-21-18-7-9-11-11-14-20-10-15-12-23-8-19-7-24-2-11-4-16-2-13v-8h-2l-2-23-2-24v-11l-4 1 3-12 3-23 4-14 8-18 10-17 7-9 10-13 13-15 16-17 11-9 9-8 2-5-2-10v-13l4-13 8-13 6-7 10-7 11-5z" fill="#15B2B3"/>
<path transform="translate(927 1e3)" d="m0 0h1v8l-4 8-1 9 3 7 9 12 10 13 5 13 2 12 8-4 8-13 3-6h1v11l-5 30-5 26-1 2-2 25 9-6 12-13 10-8 5-6h2v-2l8-7 9-9 7-8 8-8 7-9 9-10 2-1-2 5-8 13-7 8-2-1v5l-13 17-22 36-9 13-14 17-7 9-14 15-8 10-12 12-4 5-8 7-9 10-34 34-7 8-15 15-7 8-15 16-5 6-5 4-4-2-4-11-7-21-7-18-9-28-4-10-10-13-4-4-1-8v-33l4-18 7-21h2l3-9 8-16 7-11 6-8 3-3 4-7 8-9h3l2-4 3-1 2-4 5-4 1-2h3v-2h3v-2h3l1-3h2l1-3h3l1-3 5-3h2v-2h3v-2h3v-2l5-3h2v-2l4-1v-2l7-4 4-5h2l1-3 5-3h2v-2l5-3 5-5 1-3 7-6h2l2-4z" fill="#E7683C"/>
<path transform="translate(623,428)" d="m0 0h20l10 3 10 6 9 10 8 12 8 13 12 23 6 16 3 18v18l-3 17-8 16-6 9-11 12-16 15-14 14-7 9-9 12-6 10-8 16-6 15-4 15-2 18v22l3 23 8 24 4 9-1 4-9-12v-2l-3-1-3-5-5-2v-2l-4 2-17-1-9-3-9-10-12-6-5-5-3-2-5-1-12-12-2-3v-8l3-11 6-12 11-14 19-19h2v-2l8-7h2v-2l8-7 14-14 10-13 8-14 2-7-1-7-5-4v-3l-5-2-12-8-11-8-17-11-6-4-10-4-4-2-8-2-7-2-5 5h-2l2-4 2-2 3-7 15-16 9-10 10-9 11-9 3-6-2-10v-13l4-13 8-13 6-7 10-7 11-5z" fill="#158594"/>
<path transform="translate(772,297)" d="m0 0 5 2v2l4 2 15 10v2l4 2 10 7 7 6 11 7v2l6 3v2l4 2 14 10 13 10 8 6v2l5 2 26 24 15 16 8 11 4 7 5 6 4 2 2 11 1 2v7l2 8 5 2 2 3-1 3 7 1v4l-4 2-3-3v8l-1 9v11l-1 20-3 14-3 26-4 7-5 1-6 5-2-2-5 1-1-2h-2v-3h-2v-2h-2l-4-9v-2h-2v-2h-6l-6-12-4-5-8-17-7-11-4-7-8-13-5-5-9-14-6-11-10-16-4-10-7-14-10-17-8-19-14-29-5-15-15-36-2-10h2l-1-3z" fill="#E7683C"/>
<path transform="translate(746,669)" d="m0 0h31l13 4 11 8 7 9 3 10 1 7v10l-3 16-4 9h-2l-2 5-16 11-24 10-11 4-11 6-9 7-3 4h-3l-2 4-7 9-5 10-5-1-3-5-6-24-1-6v-24l4-24 5-17 8-18 9-10 12-10z" fill="#158594"/>
<path transform="translate(1046,1066)" d="m0 0 1 2-10 16-7 8-2-1v5l-13 17-22 36-9 13-14 17-7 9-14 15-8 10-12 12-4 5-8 7-9 10-34 34-7 8-15 15-7 8-15 16-5 6-5 4-4-2-4-11-7-21-7-18 4-3 11-7 11-8 6-4 13-10 19-14 12-10 11-8 10-9 13-9 7-8 14-11 14-14 8-7 8-9 8-7 13-14 10-8 5-6h2v-2l8-7 9-9 7-8 8-8 7-9 9-10z" fill="#FCFCFC"/>
<path transform="translate(1083,583)" d="m0 0 2 3v36l-2 17-7 35-6 26-7 28-8 25-4 10-6 19-3 8-4 13-5 20-10 59-4 22-6 29-8 33-6 19-4 16-3 6-1 10-5 10-1 4h-2l-2 7-3-1 2-17 7-40 6-46 2-15v-11l-4-9-2-10-1-17 6-21 11-28 9-26 6-16 5-9 3-16 1-2-5 5-1 2-2-1 10-17 8-14 10-21 13-35 5-17 10-48 4-19zm-61 197-5 12-1 7 3-4 5-12v-3zm-7 20 1 2z" fill="#195A6D"/>
<path transform="translate(902,1058)" d="m0 0 18 2 7 1 16 8 5 3 2 7 2 37h2l4 25h2l-1 12 4-1-5 5-11 12-12 11-8 6-4 1v-2h-16l-4-2 1-7 1-9 1-14 1-8-3-8-4-30-1-9-5-8-3-6-4-14 3-8 3-3z" fill="#CC553C"/>
<path transform="translate(927 1e3)" d="m0 0h1v8l-4 8-1 9 3 7 9 12 10 13 5 13 2 12 8-4 8-13 3-6h1v11l-5 30-5 26-1 2-1 11-2 3-2-6-2-12v-8h-2l-2-16-1-21-2-7-19-9-10-5-5-5-4-6-4-1-34 16-16 8-11 7-9 8-8 7-9 9-11 16-10 18-7 20-3 20-2 18v23l3 29 1 9-3-4-4-6-7-9-4-4-1-8v-33l4-18 7-21h2l3-9 8-16 7-11 6-8 3-3 4-7 8-9h3l2-4 3-1 2-4 5-4 1-2h3v-2h3v-2h3l1-3h2l1-3h3l1-3 5-3h2v-2h3v-2h3v-2l5-3h2v-2l4-1v-2l7-4 4-5h2l1-3 5-3h2v-2l5-3 5-5 1-3 7-6h2l2-4z" fill="#FCFBF9"/>
<path transform="translate(1073,448)" d="m0 0h18l9 3 6 5 5 9 3 9v11l-5 15-4 6-9 5-12 4-11-1-11-4-6-5-6-10-1-4 1-22 4-8 5-6 8-5z" fill="#F6943F"/>
<path transform="translate(698,737)" d="m0 0 18 2 21 5 3 1v2l9 2 4 2 5 4v2l6 1v2l5-1 2 3-5 4-16 6-11 6-9 7-3 4h-3l-2 4-7 9-5 10-5-1-3-5-6-24-1-6v-24l2-13z" fill="#19596C"/>
<path transform="translate(923,1033)" d="m0 0h4l8 11 10 13 5 13 2 12 8-4 8-13 3-6h1v11l-5 30-5 26-1 2-1 11-2 3-2-6-2-12v-8h-2l-2-16-1-21-2-7-19-9-10-5-5-5-4-6-2-1-1-2z" fill="#F79541"/>
<path transform="translate(735,576)" d="m0 0h11l6 4 6 7 2 7-1 8-3 6-7 6-3 1h-11l-8-4-6-7-2-5v-9l3-6 8-6z" fill="#F79541"/>
<path transform="translate(1020,791)" d="m0 0h1l-1 8-8 35-4 24-11 55h-1l-2-6-4-13-1-5-1-17 6-21 11-28 9-26 2-5 1 4zm-5 9 1 2z" fill="#FCF8F5"/>
<path transform="translate(502,758)" d="m0 0h2l4 9 3 5 1 9 7 19 13 25 6 11 14 20 3 4v3l4 2 11 11 7 8 9 8 2 1v2l4 2 8 7 16 10 20 12 20 7 15 6 21 6 9 1h33l11-2 14-5v-2h11l-5 5-7 1-15 5-21 3h-11l-21-3-20-6-19-7-18-7-15-9-16-10-10-8-21-18-7-9-11-11-14-20-10-15-12-23-8-19-7-24z" fill="#157183"/>
<path transform="translate(971,1059)" d="m0 0h1v11l-5 30-5 26-1 2-1 11-2 3-2-6-4-27-1-10v-19l1 2 8-4 8-13z" fill="#FCF9F6"/>
<path transform="translate(756,669)" d="m0 0h21l13 4 11 8 7 9 3 10 1 7v10l-2-4-1-9-4-1-12-7-9-6-6-5-10-5-4-3v-2l-5-2z" fill="#17B3B4"/>
<path transform="translate(971,1079)" d="m0 0h2l2 8-2 10v10l3 9 2-3 2 8 6-2 1 4-2 3h-2l-2 5-3 1v2h-2v2l-5 4-3 8-7 5h-2v-14l1-11 3-12 6-32h2z" fill="#185C6F"/>
<path transform="translate(768,290)" d="m0 0 4 2 14 12 17 12 13 11 12 8 15 12 19 14 13 11 11 9 12 11 12 12-1 2-13-13-8-7-11-10-4-2v-2l-4-2-13-10-12-9-10-7v-2l-4-2-9-7-9-6-7-6-9-6v-2l-5-2-8-6-6-4v-2l-5-1v3h-2l5 15 10 24 6 15 4 11 15 31 6 15 14 24 5 11-1 2-12-22-9-16-8-19-8-16-7-15-8-22-11-27-4-13v-8z" fill="#F7943E"/>
<path transform="translate(866,1064)" d="m0 0 2 1-10 6-7 4-12 9-5 6-8 6h-2l-1 4h-2l-2 4-3 4h-2l-1 4-7 12-2 5-4 8-2 5-6 11-1 15-2 4-2 1 1-14 5-16 7-16 11-18 9-11 13-13 10-8 10-7z" fill="#F7943E"/>
<path transform="translate(789,1173)" d="m0 0 2 2v11l-1 24-2 16 1 14 2 11 1 9 1 1v7l-2-3-2-7-4-31-1-11v-23l2-18z" fill="#F7943E"/>
<path transform="translate(720,896)" d="m0 0 7 1 24 9 12 3 10 1 2 4-7 1-3-1h-7l-10-2-3-2-5-2-7-3v-2l-7-2-5-2z" fill="#158B98"/>
<path transform="translate(502,758)" d="m0 0h2l4 9 3 5 1 9 7 19 13 25-1 3-8-15-4-4-10-23-7-24z" fill="#157082"/>
<path transform="translate(486,656)" d="m0 0h2l4 51v7h2l4 26 4 14-1 4-5-17-5-26-4-34z" fill="#166174"/>
<path transform="translate(486,656)" d="m0 0h2l3 35v9l-2-1-2-18z" fill="#156F80"/>
<path transform="translate(759,937)" d="m0 0h11l-5 5-7 1-12 4h-3v-2l16-6z" fill="#157F8E"/>
<path transform="translate(654,935)" d="m0 0 13 2 11 4 9 3v2l-11-2-20-7z" fill="#157283"/>
<path transform="translate(822,1268)" d="m0 0 2 1-11 8-11 7-4 1-2-7 3 3 7-1v-2l10-7z" fill="#F7943E"/>
<path transform="translate(566,512)" d="m0 0v3l-26 26-2-1 10-10 7-8z" fill="#53B8BD"/>
<path transform="translate(522,812)" d="m0 0 3 3 6 12 5 5 5 8-1 2-5-5-7-11-6-12z" fill="#16697B"/>
<path transform="translate(663,446)" d="m0 0 4 1 2 5h2l3 6-1 3-7-6v-2h-2z" fill="#15B3B4"/>
<path transform="translate(538,840)" d="m0 0 5 3 11 16 2 6-5-5-12-17z" fill="#157081"/>
<path transform="translate(636,927)" d="m0 0 6 1 19 7 1 2-11-2-13-5v-2z" fill="#157384"/>
<path transform="translate(787,1240)" d="m0 0h2l2 11 1 9 1 1v7l-2-3-2-7-2-13z" fill="#F8A964"/>
<path transform="translate(953,1116)" d="m0 0h1l4 25h2l-2 6-2-1-3-21z" fill="#F5913D"/>
<path transform="translate(556,863)" d="m0 0 7 6 7 7-1 4-9-10-4-4z" fill="#157485"/>
<path transform="translate(503,758)" d="m0 0 2 2 3 7 3 5v9l-2-1-6-19z" fill="#158594"/>
<path transform="translate(622,918)" d="m0 0 14 8v2l2 1-5-1-13-8z" fill="#156F80"/>
<path transform="translate(654,935)" d="m0 0 13 2 4 2v2l2 1-5-1-12-4z" fill="#16697B"/>
<path transform="translate(1024,773)" d="m0 0 2 1-1 7-3-1-3 9-2 3 1-6z" fill="#EB9562"/>
<path transform="translate(585,894)" d="m0 0 6 2 6 6v2l-4-2-8-7z" fill="#156F80"/>
<path transform="translate(1028,765)" d="m0 0h2l-3 13-2-4 2-8z" fill="#158D99"/>
<path transform="translate(755,942)" d="m0 0 3 1-12 4h-3v-2l6-2z" fill="#166779"/>
<path transform="translate(649,931)" d="m0 0 9 3 4 2-3 1-10-3z" fill="#157B8B"/>
<path transform="translate(1028,1092)" d="m0 0" fill="#FDFDFD"/>
</svg>
